<?xml version="1.0" encoding="utf-8"?>
<!-- Generator: Adobe Illustrator 24.1.1, SVG Export Plug-In . SVG Version: 6.00 Build 0)  -->
<svg version="1.1" id="Layer_1" xmlns="http://www.w3.org/2000/svg" xmlns:xlink="http://www.w3.org/1999/xlink" x="0px" y="0px"
	 viewBox="0 0 512 512" style="enable-background:new 0 0 512 512;" xml:space="preserve">
<g>
	<path fill="current" stroke="current" d="M437,437c48.4-48.3,75-112.6,75-181s-26.6-132.7-75-181C388.7,26.6,324.4,0,256,0S123.3,26.6,75,75
		C26.6,123.3,0,187.6,0,256s26.6,132.7,75,181c48.3,48.4,112.6,75,181,75S388.7,485.4,437,437z M26.9,256
		C26.9,129.7,129.7,26.9,256,26.9S485.1,129.7,485.1,256S382.3,485,256,485S26.9,382.3,26.9,256z"/>
	<path d="M107.8,215.6c0-3.4,1.3-6.9,3.9-9.5c5.3-5.3,13.8-5.3,19.1,0L256,331.2L381.2,206c5.3-5.3,13.8-5.3,19.1,0s5.3,13.8,0,19.1
		L265.5,359.8c-5.3,5.3-13.8,5.3-19.1,0L111.7,225.1C109.1,222.4,107.8,219,107.8,215.6L107.8,215.6z"/>
</g>
</svg>
